<svg width="21" height="20" viewBox="0 0 21 20" fill="none" xmlns="http://www.w3.org/2000/svg">
<path d="M4.67077 2.25718C8.59877 -0.96182 14.4038 -0.73782 18.0708 2.92918C21.9758 6.83418 21.9758 13.1662 18.0708 17.0712C14.1658 20.9762 7.83377 20.9762 3.92877 17.0712C2.7304 15.8744 1.85585 14.3928 1.38723 12.7653C0.918614 11.1378 0.871313 9.41795 1.24977 7.76718L1.32677 7.45418L3.26077 7.96418C2.78131 9.78644 2.96046 11.7195 3.76665 13.4226C4.57283 15.1257 5.95431 16.4896 7.6676 17.2739C9.3809 18.0582 11.3161 18.2125 13.132 17.7098C14.948 17.207 16.5282 16.0794 17.5942 14.5256C18.6602 12.9718 19.1435 11.0917 18.959 9.21644C18.7745 7.34121 17.934 5.5913 16.5856 4.27508C15.2373 2.95887 13.4676 2.16084 11.5884 2.02165C9.70932 1.88245 7.84136 2.41101 6.31377 3.51418L6.09277 3.68018L7.10977 4.69718L2.51377 5.75718L3.57377 1.16118L4.66977 2.25718H4.67077ZM11.9998 4.00018V6.00018H14.4998V8.00018H8.99977C8.87482 7.99995 8.75432 8.04651 8.66199 8.13069C8.56965 8.21487 8.51218 8.33057 8.50089 8.455C8.4896 8.57944 8.52531 8.70359 8.60099 8.80301C8.67667 8.90243 8.78682 8.96992 8.90977 8.99218L8.99977 9.00018H12.9998C13.6628 9.00018 14.2987 9.26357 14.7675 9.73241C15.2364 10.2013 15.4998 10.8371 15.4998 11.5002C15.4998 12.1632 15.2364 12.7991 14.7675 13.2679C14.2987 13.7368 13.6628 14.0002 12.9998 14.0002H11.9998V16.0002H9.99977V14.0002H7.49977V12.0002H12.9998C13.1247 12.0004 13.2452 11.9539 13.3376 11.8697C13.4299 11.7855 13.4874 11.6698 13.4986 11.5454C13.5099 11.4209 13.4742 11.2968 13.3986 11.1973C13.3229 11.0979 13.2127 11.0304 13.0898 11.0082L12.9998 11.0002H8.99977C8.33673 11.0002 7.70084 10.7368 7.232 10.2679C6.76316 9.79911 6.49977 9.16322 6.49977 8.50018C6.49977 7.83714 6.76316 7.20125 7.232 6.73241C7.70084 6.26357 8.33673 6.00018 8.99977 6.00018H9.99977V4.00018H11.9998Z" fill="currentColor"/>
</svg>
