<svg width="18" height="20" viewBox="0 0 18 20" fill="none" xmlns="http://www.w3.org/2000/svg">
<path d="M4 7V1C4 0.734784 4.10536 0.48043 4.29289 0.292893C4.48043 0.105357 4.73478 0 5 0H17C17.2652 0 17.5196 0.105357 17.7071 0.292893C17.8946 0.48043 18 0.734784 18 1V13C18 13.2652 17.8946 13.5196 17.7071 13.7071C17.5196 13.8946 17.2652 14 17 14H14V19C14 19.552 13.55 20 12.993 20H1.007C0.875127 20.0008 0.744397 19.9755 0.622322 19.9256C0.500247 19.8757 0.389233 19.8022 0.295659 19.7093C0.202084 19.6164 0.127793 19.5059 0.0770543 19.3841C0.0263156 19.2624 0.000129374 19.1319 0 19L0.00300002 8C0.00300002 7.448 0.453 7 1.01 7H4ZM6 7H14V12H16V2H6V7Z" fill="currentColor"/>
</svg>
